<svg width="62" height="43" viewBox="0 0 62 43" fill="none" xmlns="http://www.w3.org/2000/svg">
<path d="M30.7951 0.00541687H31.1355C34.2796 0.0168919 50.2108 0.131643 54.5062 1.28679C55.8048 1.63934 56.9881 2.32651 57.9379 3.27965C58.8877 4.23278 59.5707 5.4185 59.9186 6.71829C60.3049 8.17179 60.5765 10.0958 60.7601 12.0809L60.7984 12.4787L60.8825 13.4732L60.9131 13.871C61.1617 17.3671 61.1923 20.6413 61.1962 21.3566V21.6434C61.1923 22.3855 61.1579 25.8815 60.8825 29.5229L60.8519 29.9246L60.8175 30.3224C60.6262 32.5103 60.3432 34.6829 59.9186 36.2817C59.5717 37.582 58.8891 38.7683 57.9391 39.7216C56.9892 40.6749 55.8053 41.3617 54.5062 41.7132C50.0692 42.9066 33.2048 42.9908 30.8677 42.9946H30.3246C29.1427 42.9946 24.2543 42.9716 19.1288 42.7957L18.4786 42.7727L18.1458 42.7574L17.4917 42.7307L16.8376 42.7039C12.5919 42.5165 8.54887 42.2143 6.6861 41.7094C5.38747 41.3582 4.20392 40.672 3.25402 39.7194C2.30412 38.7668 1.62121 37.5813 1.27372 36.2817C0.84915 34.6867 0.5661 32.5103 0.37485 30.3224L0.34425 29.9207L0.31365 29.5229C0.124877 26.9311 0.020272 24.3338 0 21.7352L0 21.2648C0.00765 20.4424 0.03825 17.6004 0.2448 14.4639L0.271575 14.0699L0.28305 13.871L0.31365 13.4732L0.3978 12.4787L0.43605 12.0809C0.61965 10.0958 0.891225 8.16797 1.27755 6.71829C1.62445 5.41797 2.3071 4.2317 3.25704 3.2784C4.20698 2.3251 5.39084 1.63828 6.68992 1.28679C8.5527 0.789542 12.5957 0.483542 16.8415 0.292292L17.4917 0.265517L18.1496 0.242567L18.4786 0.231092L19.1326 0.204317C22.7729 0.0871752 26.4147 0.0221431 30.0568 0.00924205H30.7951V0.00541687ZM24.48 12.2837V30.7125L40.3805 21.5019L24.48 12.2837Z" fill="#CFFF69"/>
</svg>
