<svg width="52" height="51" viewBox="0 0 52 51" fill="none" xmlns="http://www.w3.org/2000/svg">
<g clip-path="url(#clip0_1_322)">
<path d="M0.196167 3.65288C0.196167 1.63519 1.87279 0 3.94148 0H47.4509C49.5195 0 51.1962 1.63519 51.1962 3.65288V47.3471C51.1962 49.3648 49.5195 51 47.4509 51H3.94148C1.87279 51 0.196167 49.3648 0.196167 47.3471V3.65288ZM15.952 42.6934V19.6637H8.29879V42.6934H15.952ZM12.127 16.5176C14.7949 16.5176 16.4556 14.7518 16.4556 12.5396C16.4078 10.2797 14.7981 8.56163 12.178 8.56163C9.55785 8.56163 7.84617 10.2829 7.84617 12.5396C7.84617 14.7518 9.50685 16.5176 12.076 16.5176H12.127V16.5176ZM27.7712 42.6934V29.8318C27.7712 29.1433 27.8222 28.4548 28.0262 27.9639C28.5777 26.5901 29.8367 25.1653 31.9532 25.1653C34.7232 25.1653 35.8292 27.2754 35.8292 30.3737V42.6934H43.4824V29.4844C43.4824 22.4081 39.7084 19.1186 34.6722 19.1186C30.6113 19.1186 28.7912 21.3499 27.7712 22.9213V23.001H27.7202C27.7372 22.9744 27.7542 22.9478 27.7712 22.9213V19.6637H20.1212C20.2169 21.8248 20.1212 42.6934 20.1212 42.6934H27.7712Z" fill="#CFFF69"/>
</g>
<defs>
<clipPath id="clip0_1_322">
<rect width="51" height="51" fill="white" transform="translate(0.196167)"/>
</clipPath>
</defs>
</svg>
