<svg width="108" height="54" viewBox="0 0 108 54" fill="none" xmlns="http://www.w3.org/2000/svg">
<mask id="mask0_1_317" style="mask-type:alpha" maskUnits="userSpaceOnUse" x="-1" y="0" width="109" height="54">
<path d="M-0.0718956 27.6703L14.3979 0.950958L93.4495 0.965904L107.85 27.1171L93.3832 53.8697L14.1838 53.7795L-0.0718956 27.6703Z" fill="#D9D9D9"/>
</mask>
<g mask="url(#mask0_1_317)">
<path d="M13.2137 3.23284C12.5454 4.46085 11.2685 6.81229 10.3762 8.45814L8.75385 11.4506L10.2115 11.5183C11.0132 11.5556 20.0232 11.5763 30.2337 11.5643L48.7983 11.5427L49.2075 10.8061C49.4327 10.4009 50.7041 8.05991 52.033 5.60379L54.4493 1.13811L53.8845 1.07983C53.5739 1.04779 44.5693 1.01667 33.8743 1.01077L14.4288 1L13.2137 3.23284ZM62.247 1.66755C59.6866 6.42189 39.738 43.1563 39.6712 43.2398C39.5982 43.331 36.3672 43.3549 24.0649 43.3549C13.8997 43.3549 8.56098 43.3862 8.58068 43.4458C8.59714 43.4958 9.86555 45.8569 11.3993 48.693L14.188 53.8493L29.7693 53.8504L45.3506 53.8515L45.7043 53.23C46.0142 52.6856 56.5797 33.2187 65.2613 17.1968L68.2345 11.7096L70.5297 11.6492C71.792 11.6159 78.7892 11.5887 86.079 11.5887C93.3689 11.5887 99.3333 11.566 99.3333 11.5381C99.3333 11.4451 99.0568 10.9249 96.3881 5.99511L93.7339 1.09208H78.1455H62.557L62.247 1.66755ZM1.52905 24.7786C0.759013 26.2093 0.0819891 27.4744 0.024506 27.5901C-0.0690503 27.7784 0.05869 28.0565 1.2402 30.2375L2.56033 32.6745L19.9658 32.6513L37.3713 32.628L40.1484 27.5178C41.6759 24.7072 42.9265 22.3559 42.9276 22.2925C42.9292 22.2008 38.8707 22.1774 22.9293 22.1774H2.92907L1.52905 24.7786ZM67.6457 27.2646C66.1282 30.0625 64.8628 32.4177 64.8338 32.4982C64.7873 32.6275 64.9792 32.6518 66.472 32.7051C68.6475 32.783 103.094 32.7673 104.088 32.688L104.839 32.628L106.314 29.9149C107.126 28.4228 107.789 27.1625 107.789 27.1144C107.789 27.0663 107.2 25.9358 106.479 24.6022L105.169 22.1774H87.787H70.405L67.6457 27.2646ZM58.8753 43.47C58.8059 43.5598 54.4624 51.5518 53.4992 53.3619L53.2943 53.7469L53.8467 53.8035C54.1506 53.8345 63.1634 53.8477 73.8752 53.8327L93.3511 53.8055L96.1557 48.6492C97.6983 45.8133 98.9669 43.4239 98.9669 43.4239C98.9669 43.4239 89.9713 43.3549 78.9688 43.3549C63.0725 43.3549 58.9459 43.3785 58.8753 43.47Z" fill="#CFFF69"/>
<path d="M13.2137 3.23284C12.5454 4.46085 11.2685 6.81229 10.3762 8.45814L8.75385 11.4506L10.2115 11.5183C11.0132 11.5556 20.0232 11.5763 30.2337 11.5643L48.7983 11.5427L49.2075 10.8061C49.4327 10.4009 50.7041 8.05991 52.033 5.60379L54.4493 1.13811L53.8845 1.07983C53.5739 1.04779 44.5693 1.01667 33.8743 1.01077L14.4288 1L13.2137 3.23284ZM62.247 1.66755C59.6866 6.42189 39.738 43.1563 39.6712 43.2398C39.5982 43.331 36.3672 43.3549 24.0649 43.3549C13.8997 43.3549 8.56098 43.3862 8.58068 43.4458C8.59714 43.4958 9.86555 45.8569 11.3993 48.693L14.188 53.8493L29.7693 53.8504L45.3506 53.8515L45.7043 53.23C46.0142 52.6856 56.5797 33.2187 65.2613 17.1968L68.2345 11.7096L70.5297 11.6492C71.792 11.6159 78.7892 11.5887 86.079 11.5887C93.3689 11.5887 99.3333 11.566 99.3333 11.5381C99.3333 11.4451 99.0568 10.9249 96.3881 5.99511L93.7339 1.09208H78.1455H62.557L62.247 1.66755ZM1.52905 24.7786C0.759013 26.2093 0.0819891 27.4744 0.024506 27.5901C-0.0690503 27.7784 0.05869 28.0565 1.2402 30.2375L2.56033 32.6745L19.9658 32.6513L37.3713 32.628L40.1484 27.5178C41.6759 24.7072 42.9265 22.3559 42.9276 22.2925C42.9292 22.2008 38.8707 22.1774 22.9293 22.1774H2.92907L1.52905 24.7786ZM67.6457 27.2646C66.1282 30.0625 64.8628 32.4177 64.8338 32.4982C64.7873 32.6275 64.9792 32.6518 66.472 32.7051C68.6475 32.783 103.094 32.7673 104.088 32.688L104.839 32.628L106.314 29.9149C107.126 28.4228 107.789 27.1625 107.789 27.1144C107.789 27.0663 107.2 25.9358 106.479 24.6022L105.169 22.1774H87.787H70.405L67.6457 27.2646ZM58.8753 43.47C58.8059 43.5598 54.4624 51.5518 53.4992 53.3619L53.2943 53.7469L53.8467 53.8035C54.1506 53.8345 63.1634 53.8477 73.8752 53.8327L93.3511 53.8055L96.1557 48.6492C97.6983 45.8133 98.9669 43.4239 98.9669 43.4239C98.9669 43.4239 89.9713 43.3549 78.9688 43.3549C63.0725 43.3549 58.9459 43.3785 58.8753 43.47Z" stroke="#CFFF69"/>
<path fill-rule="evenodd" clip-rule="evenodd" d="M61.6998 1.59274C61.6998 1.59274 39.654 42.1759 39.5811 42.2671C39.5014 42.3667 36.3015 42.3928 22.8717 42.3928C11.775 42.3928 5.94696 42.4269 5.96847 42.492C5.98644 42.5465 7.37109 45.1242 9.04544 48.2201L12.0897 53.849L29.0989 53.8502L46.1082 53.8514L46.4943 53.1729C46.8326 52.5786 55.149 37.2495 64.6262 19.7593L68.5632 12.5551L71.0688 12.4892C72.4468 12.4528 80.0852 12.4231 88.0432 12.4231C96.0011 12.4231 102.512 12.3983 102.512 12.3679C102.512 12.2663 102.21 11.6984 99.297 6.31691L96.3995 0.964523H79.3825H62.0382L61.6998 1.59274Z" fill="#CFFF69"/>
</g>
</svg>
